<svg xmlns="http://www.w3.org/2000/svg" width="900" height="520" viewBox="0 0 900 520">
<rect width="100%" height="100%" fill="#ffffff"/>
<text x="450" y="30" font-size="22" text-anchor="middle" font-family="Arial">Sensibilidad de hiperparametros con 10% etiquetado</text>
<line x1="80" y1="430" x2="860" y2="430" stroke="#333"/>
<line x1="80" y1="55" x2="80" y2="430" stroke="#333"/>
<line x1="75" y1="430.0" x2="860" y2="430.0" stroke="#e0e0e0"/>
<text x="68" y="434.0" font-size="12" text-anchor="end" font-family="Arial">0.19</text>
<line x1="75" y1="355.0" x2="860" y2="355.0" stroke="#e0e0e0"/>
<text x="68" y="359.0" font-size="12" text-anchor="end" font-family="Arial">0.22</text>
<line x1="75" y1="280.0" x2="860" y2="280.0" stroke="#e0e0e0"/>
<text x="68" y="284.0" font-size="12" text-anchor="end" font-family="Arial">0.26</text>
<line x1="75" y1="205.0" x2="860" y2="205.0" stroke="#e0e0e0"/>
<text x="68" y="209.0" font-size="12" text-anchor="end" font-family="Arial">0.29</text>
<line x1="75" y1="130.0" x2="860" y2="130.0" stroke="#e0e0e0"/>
<text x="68" y="134.0" font-size="12" text-anchor="end" font-family="Arial">0.32</text>
<line x1="75" y1="55.0" x2="860" y2="55.0" stroke="#e0e0e0"/>
<text x="68" y="59.0" font-size="12" text-anchor="end" font-family="Arial">0.36</text>
<rect x="115" y="257.9" width="34" height="172.1" fill="#2ca02c"/>
<text x="132.0" y="453" font-size="12" text-anchor="middle" font-family="Arial">thr=0.60</text>
<text x="132.0" y="251.9" font-size="11" text-anchor="middle" font-family="Arial">0.266</text>
<rect x="161" y="263.9" width="34" height="166.1" fill="#2ca02c"/>
<text x="178.0" y="453" font-size="12" text-anchor="middle" font-family="Arial">thr=0.75</text>
<text x="178.0" y="257.9" font-size="11" text-anchor="middle" font-family="Arial">0.263</text>
<rect x="207" y="317.2" width="34" height="112.8" fill="#2ca02c"/>
<text x="224.0" y="453" font-size="12" text-anchor="middle" font-family="Arial">thr=0.90</text>
<text x="224.0" y="311.2" font-size="11" text-anchor="middle" font-family="Arial">0.240</text>
<rect x="253" y="235.8" width="34" height="194.2" fill="#d62728"/>
<text x="270.0" y="453" font-size="12" text-anchor="middle" font-family="Arial">k=10</text>
<text x="270.0" y="229.8" font-size="11" text-anchor="middle" font-family="Arial">0.276</text>
<rect x="299" y="240.4" width="34" height="189.6" fill="#d62728"/>
<text x="316.0" y="453" font-size="12" text-anchor="middle" font-family="Arial">k=20</text>
<text x="316.0" y="234.4" font-size="11" text-anchor="middle" font-family="Arial">0.274</text>
<rect x="345" y="167.8" width="34" height="262.2" fill="#d62728"/>
<text x="362.0" y="453" font-size="12" text-anchor="middle" font-family="Arial">k=5</text>
<text x="362.0" y="161.8" font-size="11" text-anchor="middle" font-family="Arial">0.306</text>
</svg>
