<svg xmlns="http://www.w3.org/2000/svg" width="900" height="520" viewBox="0 0 900 520">
<rect width="100%" height="100%" fill="#ffffff"/>
<text x="450" y="30" font-size="22" text-anchor="middle" font-family="Arial">Macro-F1 por porcentaje de etiquetas</text>
<line x1="90" y1="445" x2="860" y2="445" stroke="#333"/>
<line x1="90" y1="55" x2="90" y2="445" stroke="#333"/>
<line x1="85" y1="445.0" x2="860" y2="445.0" stroke="#e0e0e0"/>
<text x="78" y="449.0" font-size="12" text-anchor="end" font-family="Arial">0.14</text>
<line x1="85" y1="367.0" x2="860" y2="367.0" stroke="#e0e0e0"/>
<text x="78" y="371.0" font-size="12" text-anchor="end" font-family="Arial">0.19</text>
<line x1="85" y1="289.0" x2="860" y2="289.0" stroke="#e0e0e0"/>
<text x="78" y="293.0" font-size="12" text-anchor="end" font-family="Arial">0.25</text>
<line x1="85" y1="211.0" x2="860" y2="211.0" stroke="#e0e0e0"/>
<text x="78" y="215.0" font-size="12" text-anchor="end" font-family="Arial">0.30</text>
<line x1="85" y1="133.0" x2="860" y2="133.0" stroke="#e0e0e0"/>
<text x="78" y="137.0" font-size="12" text-anchor="end" font-family="Arial">0.36</text>
<line x1="85" y1="55.0" x2="860" y2="55.0" stroke="#e0e0e0"/>
<text x="78" y="59.0" font-size="12" text-anchor="end" font-family="Arial">0.41</text>
<text x="90.0" y="470" font-size="13" text-anchor="middle" font-family="Arial">5%</text>
<text x="346.7" y="470" font-size="13" text-anchor="middle" font-family="Arial">10%</text>
<text x="860.0" y="470" font-size="13" text-anchor="middle" font-family="Arial">20%</text>
<polyline fill="none" stroke="#1f77b4" stroke-width="3" points="90.0,256.5 346.7,229.3 860.0,233.2"/>
<circle cx="90.0" cy="256.5" r="5" fill="#1f77b4"/>
<circle cx="346.7" cy="229.3" r="5" fill="#1f77b4"/>
<circle cx="860.0" cy="233.2" r="5" fill="#1f77b4"/>
<polyline fill="none" stroke="#2ca02c" stroke-width="3" points="90.0,373.7 346.7,262.9 860.0,215.9"/>
<circle cx="90.0" cy="373.7" r="5" fill="#2ca02c"/>
<circle cx="346.7" cy="262.9" r="5" fill="#2ca02c"/>
<circle cx="860.0" cy="215.9" r="5" fill="#2ca02c"/>
<polyline fill="none" stroke="#d62728" stroke-width="3" points="90.0,246.7 346.7,198.7 860.0,126.3"/>
<circle cx="90.0" cy="246.7" r="5" fill="#d62728"/>
<circle cx="346.7" cy="198.7" r="5" fill="#d62728"/>
<circle cx="860.0" cy="126.3" r="5" fill="#d62728"/>
<rect x="650" y="58" width="16" height="16" fill="#1f77b4"/>
<text x="674" y="71" font-size="14" font-family="Arial">Supervisado KNN</text>
<rect x="650" y="82" width="16" height="16" fill="#2ca02c"/>
<text x="674" y="95" font-size="14" font-family="Arial">Self-Training KNN</text>
<rect x="650" y="106" width="16" height="16" fill="#d62728"/>
<text x="674" y="119" font-size="14" font-family="Arial">Label Propagation</text>
<text x="450" y="500" font-size="14" text-anchor="middle" font-family="Arial">Porcentaje de datos etiquetados en entrenamiento</text>
<text x="18" y="285" font-size="14" text-anchor="middle" font-family="Arial" transform="rotate(-90 18 285)">Macro-F1 promedio</text>
</svg>
