<svg xmlns="http://www.w3.org/2000/svg" width="760" height="520" viewBox="0 0 760 520">
<rect width="100%" height="100%" fill="#ffffff"/>
<text x="380" y="30" font-size="21" text-anchor="middle" font-family="Arial">Prediccion vs valor real - Label Propagation</text>
<line x1="80" y1="435" x2="690" y2="435" stroke="#333"/>
<line x1="80" y1="55" x2="80" y2="435" stroke="#333"/>
<line x1="80" y1="435" x2="690" y2="55" stroke="#777" stroke-dasharray="6 5"/>
<text x="80.0" y="459" font-size="12" text-anchor="middle" font-family="Arial">3</text>
<text x="65" y="439.0" font-size="12" text-anchor="end" font-family="Arial">3</text>
<text x="202.0" y="459" font-size="12" text-anchor="middle" font-family="Arial">4</text>
<text x="65" y="363.0" font-size="12" text-anchor="end" font-family="Arial">4</text>
<text x="324.0" y="459" font-size="12" text-anchor="middle" font-family="Arial">5</text>
<text x="65" y="287.0" font-size="12" text-anchor="end" font-family="Arial">5</text>
<text x="446.0" y="459" font-size="12" text-anchor="middle" font-family="Arial">6</text>
<text x="65" y="211.0" font-size="12" text-anchor="end" font-family="Arial">6</text>
<text x="568.0" y="459" font-size="12" text-anchor="middle" font-family="Arial">7</text>
<text x="65" y="135.0" font-size="12" text-anchor="end" font-family="Arial">7</text>
<text x="690.0" y="459" font-size="12" text-anchor="middle" font-family="Arial">8</text>
<text x="65" y="59.0" font-size="12" text-anchor="end" font-family="Arial">8</text>
<circle cx="326.8" cy="278.8" r="3.5" fill="#2ca02c" opacity="0.62"/>
<circle cx="561.9" cy="213.2" r="3.5" fill="#d62728" opacity="0.62"/>
<circle cx="441.9" cy="208.5" r="3.5" fill="#2ca02c" opacity="0.62"/>
<circle cx="569.9" cy="129.7" r="3.5" fill="#2ca02c" opacity="0.62"/>
<circle cx="447.3" cy="283.4" r="3.5" fill="#d62728" opacity="0.62"/>
<circle cx="331.0" cy="278.3" r="3.5" fill="#2ca02c" opacity="0.62"/>
<circle cx="449.5" cy="278.8" r="3.5" fill="#d62728" opacity="0.62"/>
<circle cx="322.3" cy="133.7" r="3.5" fill="#d62728" opacity="0.62"/>
<circle cx="320.8" cy="204.1" r="3.5" fill="#d62728" opacity="0.62"/>
<circle cx="328.0" cy="276.2" r="3.5" fill="#2ca02c" opacity="0.62"/>
<circle cx="445.3" cy="291.0" r="3.5" fill="#d62728" opacity="0.62"/>
<circle cx="453.9" cy="276.2" r="3.5" fill="#d62728" opacity="0.62"/>
<circle cx="319.4" cy="279.2" r="3.5" fill="#2ca02c" opacity="0.62"/>
<circle cx="574.9" cy="137.1" r="3.5" fill="#2ca02c" opacity="0.62"/>
<circle cx="452.1" cy="280.9" r="3.5" fill="#d62728" opacity="0.62"/>
<circle cx="440.5" cy="212.3" r="3.5" fill="#2ca02c" opacity="0.62"/>
<circle cx="327.3" cy="208.8" r="3.5" fill="#d62728" opacity="0.62"/>
<circle cx="209.8" cy="285.5" r="3.5" fill="#d62728" opacity="0.62"/>
<circle cx="438.1" cy="288.1" r="3.5" fill="#d62728" opacity="0.62"/>
<circle cx="442.8" cy="209.6" r="3.5" fill="#2ca02c" opacity="0.62"/>
<circle cx="453.0" cy="125.1" r="3.5" fill="#d62728" opacity="0.62"/>
<circle cx="561.8" cy="200.7" r="3.5" fill="#d62728" opacity="0.62"/>
<circle cx="446.9" cy="203.4" r="3.5" fill="#2ca02c" opacity="0.62"/>
<circle cx="325.7" cy="286.5" r="3.5" fill="#2ca02c" opacity="0.62"/>
<circle cx="319.3" cy="209.1" r="3.5" fill="#d62728" opacity="0.62"/>
<circle cx="320.2" cy="206.8" r="3.5" fill="#d62728" opacity="0.62"/>
<circle cx="452.5" cy="212.5" r="3.5" fill="#2ca02c" opacity="0.62"/>
<circle cx="317.5" cy="205.8" r="3.5" fill="#d62728" opacity="0.62"/>
<circle cx="320.4" cy="275.1" r="3.5" fill="#2ca02c" opacity="0.62"/>
<circle cx="450.3" cy="209.2" r="3.5" fill="#2ca02c" opacity="0.62"/>
<circle cx="442.2" cy="210.9" r="3.5" fill="#2ca02c" opacity="0.62"/>
<circle cx="324.8" cy="281.8" r="3.5" fill="#2ca02c" opacity="0.62"/>
<circle cx="316.2" cy="276.2" r="3.5" fill="#2ca02c" opacity="0.62"/>
<circle cx="452.1" cy="365.5" r="3.5" fill="#d62728" opacity="0.62"/>
<circle cx="568.7" cy="288.4" r="3.5" fill="#d62728" opacity="0.62"/>
<circle cx="447.3" cy="201.4" r="3.5" fill="#2ca02c" opacity="0.62"/>
<circle cx="440.0" cy="203.9" r="3.5" fill="#2ca02c" opacity="0.62"/>
<circle cx="330.4" cy="287.7" r="3.5" fill="#2ca02c" opacity="0.62"/>
<circle cx="573.8" cy="213.4" r="3.5" fill="#d62728" opacity="0.62"/>
<circle cx="685.4" cy="203.0" r="3.5" fill="#d62728" opacity="0.62"/>
<circle cx="439.6" cy="287.5" r="3.5" fill="#d62728" opacity="0.62"/>
<circle cx="452.1" cy="205.5" r="3.5" fill="#2ca02c" opacity="0.62"/>
<circle cx="447.9" cy="201.5" r="3.5" fill="#2ca02c" opacity="0.62"/>
<circle cx="330.9" cy="288.8" r="3.5" fill="#2ca02c" opacity="0.62"/>
<circle cx="453.6" cy="288.0" r="3.5" fill="#d62728" opacity="0.62"/>
<circle cx="330.1" cy="199.4" r="3.5" fill="#d62728" opacity="0.62"/>
<circle cx="449.8" cy="204.3" r="3.5" fill="#2ca02c" opacity="0.62"/>
<circle cx="208.9" cy="287.8" r="3.5" fill="#d62728" opacity="0.62"/>
<circle cx="451.8" cy="60.0" r="3.5" fill="#d62728" opacity="0.62"/>
<circle cx="442.3" cy="287.6" r="3.5" fill="#d62728" opacity="0.62"/>
<circle cx="73.7" cy="289.0" r="3.5" fill="#d62728" opacity="0.62"/>
<circle cx="329.7" cy="278.6" r="3.5" fill="#2ca02c" opacity="0.62"/>
<circle cx="573.1" cy="206.4" r="3.5" fill="#d62728" opacity="0.62"/>
<circle cx="442.9" cy="211.7" r="3.5" fill="#2ca02c" opacity="0.62"/>
<circle cx="441.6" cy="199.4" r="3.5" fill="#2ca02c" opacity="0.62"/>
<circle cx="319.1" cy="280.3" r="3.5" fill="#2ca02c" opacity="0.62"/>
<circle cx="329.8" cy="214.5" r="3.5" fill="#d62728" opacity="0.62"/>
<circle cx="442.5" cy="209.3" r="3.5" fill="#2ca02c" opacity="0.62"/>
<circle cx="322.4" cy="214.7" r="3.5" fill="#d62728" opacity="0.62"/>
<circle cx="446.6" cy="214.0" r="3.5" fill="#2ca02c" opacity="0.62"/>
<circle cx="317.8" cy="290.5" r="3.5" fill="#2ca02c" opacity="0.62"/>
<circle cx="562.9" cy="214.4" r="3.5" fill="#d62728" opacity="0.62"/>
<circle cx="320.2" cy="200.7" r="3.5" fill="#d62728" opacity="0.62"/>
<circle cx="323.0" cy="210.7" r="3.5" fill="#d62728" opacity="0.62"/>
<circle cx="321.0" cy="284.7" r="3.5" fill="#2ca02c" opacity="0.62"/>
<circle cx="568.2" cy="205.2" r="3.5" fill="#d62728" opacity="0.62"/>
<circle cx="447.2" cy="127.1" r="3.5" fill="#d62728" opacity="0.62"/>
<circle cx="327.3" cy="275.0" r="3.5" fill="#2ca02c" opacity="0.62"/>
<circle cx="330.8" cy="283.6" r="3.5" fill="#2ca02c" opacity="0.62"/>
<circle cx="327.5" cy="210.9" r="3.5" fill="#d62728" opacity="0.62"/>
<circle cx="448.7" cy="280.8" r="3.5" fill="#d62728" opacity="0.62"/>
<circle cx="439.1" cy="209.6" r="3.5" fill="#2ca02c" opacity="0.62"/>
<circle cx="321.3" cy="280.0" r="3.5" fill="#2ca02c" opacity="0.62"/>
<circle cx="573.6" cy="134.5" r="3.5" fill="#2ca02c" opacity="0.62"/>
<circle cx="320.8" cy="279.9" r="3.5" fill="#2ca02c" opacity="0.62"/>
<circle cx="444.5" cy="281.4" r="3.5" fill="#d62728" opacity="0.62"/>
<circle cx="320.7" cy="277.0" r="3.5" fill="#2ca02c" opacity="0.62"/>
<circle cx="444.7" cy="214.0" r="3.5" fill="#2ca02c" opacity="0.62"/>
<circle cx="326.8" cy="289.4" r="3.5" fill="#2ca02c" opacity="0.62"/>
<circle cx="325.8" cy="203.8" r="3.5" fill="#d62728" opacity="0.62"/>
<circle cx="202.8" cy="199.0" r="3.5" fill="#d62728" opacity="0.62"/>
<circle cx="320.6" cy="281.9" r="3.5" fill="#2ca02c" opacity="0.62"/>
<circle cx="325.3" cy="285.5" r="3.5" fill="#2ca02c" opacity="0.62"/>
<circle cx="323.4" cy="282.1" r="3.5" fill="#2ca02c" opacity="0.62"/>
<circle cx="563.4" cy="206.6" r="3.5" fill="#d62728" opacity="0.62"/>
<circle cx="330.4" cy="287.7" r="3.5" fill="#2ca02c" opacity="0.62"/>
<circle cx="440.7" cy="276.4" r="3.5" fill="#d62728" opacity="0.62"/>
<circle cx="324.2" cy="285.1" r="3.5" fill="#2ca02c" opacity="0.62"/>
<circle cx="199.4" cy="212.1" r="3.5" fill="#d62728" opacity="0.62"/>
<circle cx="450.0" cy="209.8" r="3.5" fill="#2ca02c" opacity="0.62"/>
<circle cx="441.6" cy="278.2" r="3.5" fill="#d62728" opacity="0.62"/>
<circle cx="316.4" cy="278.9" r="3.5" fill="#2ca02c" opacity="0.62"/>
<circle cx="323.6" cy="212.6" r="3.5" fill="#d62728" opacity="0.62"/>
<circle cx="317.2" cy="281.6" r="3.5" fill="#2ca02c" opacity="0.62"/>
<circle cx="326.1" cy="278.1" r="3.5" fill="#2ca02c" opacity="0.62"/>
<circle cx="205.1" cy="206.9" r="3.5" fill="#d62728" opacity="0.62"/>
<circle cx="319.9" cy="209.5" r="3.5" fill="#d62728" opacity="0.62"/>
<circle cx="438.1" cy="135.0" r="3.5" fill="#d62728" opacity="0.62"/>
<circle cx="450.3" cy="276.7" r="3.5" fill="#d62728" opacity="0.62"/>
<circle cx="566.8" cy="277.8" r="3.5" fill="#d62728" opacity="0.62"/>
<circle cx="453.3" cy="207.3" r="3.5" fill="#2ca02c" opacity="0.62"/>
<circle cx="438.8" cy="355.0" r="3.5" fill="#d62728" opacity="0.62"/>
<circle cx="451.6" cy="130.3" r="3.5" fill="#d62728" opacity="0.62"/>
<circle cx="450.8" cy="209.7" r="3.5" fill="#2ca02c" opacity="0.62"/>
<circle cx="575.8" cy="208.5" r="3.5" fill="#d62728" opacity="0.62"/>
<circle cx="453.2" cy="289.3" r="3.5" fill="#d62728" opacity="0.62"/>
<circle cx="325.8" cy="286.5" r="3.5" fill="#2ca02c" opacity="0.62"/>
<circle cx="446.1" cy="212.3" r="3.5" fill="#2ca02c" opacity="0.62"/>
<circle cx="446.8" cy="137.4" r="3.5" fill="#d62728" opacity="0.62"/>
<circle cx="449.9" cy="206.6" r="3.5" fill="#2ca02c" opacity="0.62"/>
<circle cx="320.1" cy="203.0" r="3.5" fill="#d62728" opacity="0.62"/>
<circle cx="448.2" cy="135.3" r="3.5" fill="#d62728" opacity="0.62"/>
<circle cx="568.3" cy="133.0" r="3.5" fill="#2ca02c" opacity="0.62"/>
<circle cx="442.4" cy="276.2" r="3.5" fill="#d62728" opacity="0.62"/>
<circle cx="442.6" cy="203.3" r="3.5" fill="#2ca02c" opacity="0.62"/>
<circle cx="443.1" cy="207.6" r="3.5" fill="#2ca02c" opacity="0.62"/>
<circle cx="440.2" cy="202.7" r="3.5" fill="#2ca02c" opacity="0.62"/>
<circle cx="327.1" cy="286.3" r="3.5" fill="#2ca02c" opacity="0.62"/>
<circle cx="439.0" cy="281.5" r="3.5" fill="#d62728" opacity="0.62"/>
<circle cx="446.7" cy="205.7" r="3.5" fill="#2ca02c" opacity="0.62"/>
<circle cx="319.3" cy="281.7" r="3.5" fill="#2ca02c" opacity="0.62"/>
<circle cx="330.5" cy="284.3" r="3.5" fill="#2ca02c" opacity="0.62"/>
<circle cx="327.1" cy="288.7" r="3.5" fill="#2ca02c" opacity="0.62"/>
<circle cx="328.2" cy="281.1" r="3.5" fill="#2ca02c" opacity="0.62"/>
<circle cx="438.1" cy="204.6" r="3.5" fill="#2ca02c" opacity="0.62"/>
<circle cx="450.1" cy="212.7" r="3.5" fill="#2ca02c" opacity="0.62"/>
<circle cx="575.3" cy="129.7" r="3.5" fill="#2ca02c" opacity="0.62"/>
<circle cx="206.0" cy="283.7" r="3.5" fill="#d62728" opacity="0.62"/>
<circle cx="325.7" cy="278.5" r="3.5" fill="#2ca02c" opacity="0.62"/>
<circle cx="319.5" cy="282.0" r="3.5" fill="#2ca02c" opacity="0.62"/>
<circle cx="560.5" cy="280.4" r="3.5" fill="#d62728" opacity="0.62"/>
<circle cx="448.9" cy="281.5" r="3.5" fill="#d62728" opacity="0.62"/>
<circle cx="318.6" cy="282.5" r="3.5" fill="#2ca02c" opacity="0.62"/>
<circle cx="196.0" cy="209.0" r="3.5" fill="#d62728" opacity="0.62"/>
<circle cx="438.4" cy="205.3" r="3.5" fill="#2ca02c" opacity="0.62"/>
<circle cx="325.0" cy="199.4" r="3.5" fill="#d62728" opacity="0.62"/>
<circle cx="448.3" cy="201.2" r="3.5" fill="#2ca02c" opacity="0.62"/>
<circle cx="445.4" cy="199.8" r="3.5" fill="#2ca02c" opacity="0.62"/>
<circle cx="566.1" cy="202.4" r="3.5" fill="#d62728" opacity="0.62"/>
<circle cx="443.2" cy="211.2" r="3.5" fill="#2ca02c" opacity="0.62"/>
<circle cx="322.1" cy="287.0" r="3.5" fill="#2ca02c" opacity="0.62"/>
<circle cx="329.3" cy="203.0" r="3.5" fill="#d62728" opacity="0.62"/>
<circle cx="317.3" cy="275.3" r="3.5" fill="#2ca02c" opacity="0.62"/>
<circle cx="324.6" cy="291.0" r="3.5" fill="#2ca02c" opacity="0.62"/>
<circle cx="565.6" cy="209.4" r="3.5" fill="#d62728" opacity="0.62"/>
<circle cx="328.5" cy="285.4" r="3.5" fill="#2ca02c" opacity="0.62"/>
<circle cx="328.1" cy="290.2" r="3.5" fill="#2ca02c" opacity="0.62"/>
<circle cx="441.2" cy="199.3" r="3.5" fill="#2ca02c" opacity="0.62"/>
<circle cx="440.4" cy="201.0" r="3.5" fill="#2ca02c" opacity="0.62"/>
<circle cx="326.7" cy="284.0" r="3.5" fill="#2ca02c" opacity="0.62"/>
<circle cx="563.5" cy="134.2" r="3.5" fill="#2ca02c" opacity="0.62"/>
<circle cx="694.3" cy="125.7" r="3.5" fill="#d62728" opacity="0.62"/>
<circle cx="447.7" cy="211.0" r="3.5" fill="#2ca02c" opacity="0.62"/>
<circle cx="439.8" cy="212.1" r="3.5" fill="#2ca02c" opacity="0.62"/>
<circle cx="453.4" cy="200.7" r="3.5" fill="#2ca02c" opacity="0.62"/>
<circle cx="316.4" cy="204.0" r="3.5" fill="#d62728" opacity="0.62"/>
<circle cx="326.8" cy="290.3" r="3.5" fill="#2ca02c" opacity="0.62"/>
<circle cx="444.3" cy="210.4" r="3.5" fill="#2ca02c" opacity="0.62"/>
<circle cx="317.2" cy="286.0" r="3.5" fill="#2ca02c" opacity="0.62"/>
<circle cx="326.0" cy="276.6" r="3.5" fill="#2ca02c" opacity="0.62"/>
<circle cx="328.4" cy="288.6" r="3.5" fill="#2ca02c" opacity="0.62"/>
<circle cx="447.6" cy="200.9" r="3.5" fill="#2ca02c" opacity="0.62"/>
<circle cx="331.7" cy="211.5" r="3.5" fill="#d62728" opacity="0.62"/>
<circle cx="565.6" cy="205.9" r="3.5" fill="#d62728" opacity="0.62"/>
<circle cx="443.9" cy="207.1" r="3.5" fill="#2ca02c" opacity="0.62"/>
<circle cx="321.5" cy="288.6" r="3.5" fill="#2ca02c" opacity="0.62"/>
<circle cx="329.2" cy="200.7" r="3.5" fill="#d62728" opacity="0.62"/>
<circle cx="453.4" cy="209.2" r="3.5" fill="#2ca02c" opacity="0.62"/>
<circle cx="329.3" cy="286.3" r="3.5" fill="#2ca02c" opacity="0.62"/>
<circle cx="567.0" cy="134.7" r="3.5" fill="#2ca02c" opacity="0.62"/>
<circle cx="575.4" cy="203.3" r="3.5" fill="#d62728" opacity="0.62"/>
<circle cx="450.9" cy="283.6" r="3.5" fill="#d62728" opacity="0.62"/>
<circle cx="445.7" cy="206.0" r="3.5" fill="#2ca02c" opacity="0.62"/>
<circle cx="327.7" cy="279.3" r="3.5" fill="#2ca02c" opacity="0.62"/>
<circle cx="451.6" cy="212.3" r="3.5" fill="#2ca02c" opacity="0.62"/>
<circle cx="561.4" cy="137.1" r="3.5" fill="#2ca02c" opacity="0.62"/>
<circle cx="563.9" cy="206.4" r="3.5" fill="#d62728" opacity="0.62"/>
<circle cx="447.8" cy="281.1" r="3.5" fill="#d62728" opacity="0.62"/>
<circle cx="316.5" cy="288.6" r="3.5" fill="#2ca02c" opacity="0.62"/>
<circle cx="318.9" cy="278.4" r="3.5" fill="#2ca02c" opacity="0.62"/>
<circle cx="450.8" cy="280.4" r="3.5" fill="#d62728" opacity="0.62"/>
<circle cx="452.1" cy="210.2" r="3.5" fill="#2ca02c" opacity="0.62"/>
<circle cx="442.4" cy="199.2" r="3.5" fill="#2ca02c" opacity="0.62"/>
<circle cx="453.2" cy="200.4" r="3.5" fill="#2ca02c" opacity="0.62"/>
<circle cx="571.5" cy="282.8" r="3.5" fill="#d62728" opacity="0.62"/>
<circle cx="572.1" cy="134.0" r="3.5" fill="#2ca02c" opacity="0.62"/>
<circle cx="326.3" cy="282.9" r="3.5" fill="#2ca02c" opacity="0.62"/>
<circle cx="328.7" cy="276.5" r="3.5" fill="#2ca02c" opacity="0.62"/>
<circle cx="563.5" cy="134.1" r="3.5" fill="#2ca02c" opacity="0.62"/>
<circle cx="320.9" cy="284.3" r="3.5" fill="#2ca02c" opacity="0.62"/>
<circle cx="79.6" cy="131.5" r="3.5" fill="#d62728" opacity="0.62"/>
<circle cx="444.8" cy="210.9" r="3.5" fill="#2ca02c" opacity="0.62"/>
<circle cx="443.3" cy="210.2" r="3.5" fill="#2ca02c" opacity="0.62"/>
<circle cx="320.3" cy="279.0" r="3.5" fill="#2ca02c" opacity="0.62"/>
<circle cx="317.9" cy="202.1" r="3.5" fill="#d62728" opacity="0.62"/>
<circle cx="439.9" cy="283.6" r="3.5" fill="#d62728" opacity="0.62"/>
<circle cx="450.2" cy="278.0" r="3.5" fill="#d62728" opacity="0.62"/>
<circle cx="319.5" cy="206.7" r="3.5" fill="#d62728" opacity="0.62"/>
<circle cx="327.6" cy="290.6" r="3.5" fill="#2ca02c" opacity="0.62"/>
<circle cx="324.4" cy="203.5" r="3.5" fill="#d62728" opacity="0.62"/>
<circle cx="439.6" cy="202.1" r="3.5" fill="#2ca02c" opacity="0.62"/>
<circle cx="319.6" cy="277.9" r="3.5" fill="#2ca02c" opacity="0.62"/>
<circle cx="316.2" cy="283.5" r="3.5" fill="#2ca02c" opacity="0.62"/>
<circle cx="320.4" cy="290.6" r="3.5" fill="#2ca02c" opacity="0.62"/>
<circle cx="324.9" cy="286.2" r="3.5" fill="#2ca02c" opacity="0.62"/>
<circle cx="440.0" cy="212.9" r="3.5" fill="#2ca02c" opacity="0.62"/>
<circle cx="323.9" cy="289.0" r="3.5" fill="#2ca02c" opacity="0.62"/>
<circle cx="325.2" cy="282.5" r="3.5" fill="#2ca02c" opacity="0.62"/>
<circle cx="567.0" cy="125.9" r="3.5" fill="#2ca02c" opacity="0.62"/>
<circle cx="316.8" cy="214.1" r="3.5" fill="#d62728" opacity="0.62"/>
<circle cx="445.6" cy="288.2" r="3.5" fill="#d62728" opacity="0.62"/>
<circle cx="322.4" cy="200.2" r="3.5" fill="#d62728" opacity="0.62"/>
<circle cx="326.1" cy="275.9" r="3.5" fill="#2ca02c" opacity="0.62"/>
<circle cx="318.4" cy="284.0" r="3.5" fill="#2ca02c" opacity="0.62"/>
<circle cx="320.9" cy="290.9" r="3.5" fill="#2ca02c" opacity="0.62"/>
<circle cx="317.9" cy="287.2" r="3.5" fill="#2ca02c" opacity="0.62"/>
<circle cx="325.7" cy="287.7" r="3.5" fill="#2ca02c" opacity="0.62"/>
<circle cx="441.6" cy="283.4" r="3.5" fill="#d62728" opacity="0.62"/>
<circle cx="323.2" cy="206.1" r="3.5" fill="#d62728" opacity="0.62"/>
<circle cx="451.8" cy="214.8" r="3.5" fill="#2ca02c" opacity="0.62"/>
<text x="385" y="490" font-size="14" text-anchor="middle" font-family="Arial">Valor real de calidad</text>
<text x="18" y="250" font-size="14" text-anchor="middle" font-family="Arial" transform="rotate(-90 18 250)">Calidad predicha</text>
</svg>
