<svg xmlns="http://www.w3.org/2000/svg" width="650" height="600" viewBox="0 0 650 600">
<rect width="100%" height="100%" fill="#ffffff"/>
<text x="325" y="35" font-size="21" text-anchor="middle" font-family="Arial">Matriz de confusion - Self-Training KNN</text>
<text x="325" y="570" font-size="14" text-anchor="middle" font-family="Arial">Prediccion</text>
<text x="26" y="285" font-size="14" text-anchor="middle" font-family="Arial" transform="rotate(-90 26 285)">Valor real</text>
<text x="90" y="118" font-size="13" text-anchor="end" font-family="Arial">3</text>
<text x="141" y="68" font-size="13" text-anchor="middle" font-family="Arial">3</text>
<text x="90" y="180" font-size="13" text-anchor="end" font-family="Arial">4</text>
<text x="203" y="68" font-size="13" text-anchor="middle" font-family="Arial">4</text>
<text x="90" y="242" font-size="13" text-anchor="end" font-family="Arial">5</text>
<text x="265" y="68" font-size="13" text-anchor="middle" font-family="Arial">5</text>
<text x="90" y="304" font-size="13" text-anchor="end" font-family="Arial">6</text>
<text x="327" y="68" font-size="13" text-anchor="middle" font-family="Arial">6</text>
<text x="90" y="366" font-size="13" text-anchor="end" font-family="Arial">7</text>
<text x="389" y="68" font-size="13" text-anchor="middle" font-family="Arial">7</text>
<text x="90" y="428" font-size="13" text-anchor="end" font-family="Arial">8</text>
<text x="451" y="68" font-size="13" text-anchor="middle" font-family="Arial">8</text>
<rect x="110" y="80" width="62" height="62" fill="rgb(255,255,255)" stroke="#ffffff"/>
<text x="141.0" y="116.0" font-size="14" text-anchor="middle" font-family="Arial">0</text>
<rect x="172" y="80" width="62" height="62" fill="rgb(255,255,255)" stroke="#ffffff"/>
<text x="203.0" y="116.0" font-size="14" text-anchor="middle" font-family="Arial">0</text>
<rect x="234" y="80" width="62" height="62" fill="rgb(253,253,252)" stroke="#ffffff"/>
<text x="265.0" y="116.0" font-size="14" text-anchor="middle" font-family="Arial">1</text>
<rect x="296" y="80" width="62" height="62" fill="rgb(253,253,252)" stroke="#ffffff"/>
<text x="327.0" y="116.0" font-size="14" text-anchor="middle" font-family="Arial">1</text>
<rect x="358" y="80" width="62" height="62" fill="rgb(255,255,255)" stroke="#ffffff"/>
<text x="389.0" y="116.0" font-size="14" text-anchor="middle" font-family="Arial">0</text>
<rect x="420" y="80" width="62" height="62" fill="rgb(255,255,255)" stroke="#ffffff"/>
<text x="451.0" y="116.0" font-size="14" text-anchor="middle" font-family="Arial">0</text>
<rect x="110" y="142" width="62" height="62" fill="rgb(255,255,255)" stroke="#ffffff"/>
<text x="141.0" y="178.0" font-size="14" text-anchor="middle" font-family="Arial">0</text>
<rect x="172" y="142" width="62" height="62" fill="rgb(255,255,255)" stroke="#ffffff"/>
<text x="203.0" y="178.0" font-size="14" text-anchor="middle" font-family="Arial">0</text>
<rect x="234" y="142" width="62" height="62" fill="rgb(247,245,244)" stroke="#ffffff"/>
<text x="265.0" y="178.0" font-size="14" text-anchor="middle" font-family="Arial">5</text>
<rect x="296" y="142" width="62" height="62" fill="rgb(245,243,241)" stroke="#ffffff"/>
<text x="327.0" y="178.0" font-size="14" text-anchor="middle" font-family="Arial">6</text>
<rect x="358" y="142" width="62" height="62" fill="rgb(255,255,255)" stroke="#ffffff"/>
<text x="389.0" y="178.0" font-size="14" text-anchor="middle" font-family="Arial">0</text>
<rect x="420" y="142" width="62" height="62" fill="rgb(255,255,255)" stroke="#ffffff"/>
<text x="451.0" y="178.0" font-size="14" text-anchor="middle" font-family="Arial">0</text>
<rect x="110" y="204" width="62" height="62" fill="rgb(255,255,255)" stroke="#ffffff"/>
<text x="141.0" y="240.0" font-size="14" text-anchor="middle" font-family="Arial">0</text>
<rect x="172" y="204" width="62" height="62" fill="rgb(255,255,255)" stroke="#ffffff"/>
<text x="203.0" y="240.0" font-size="14" text-anchor="middle" font-family="Arial">0</text>
<rect x="234" y="204" width="62" height="62" fill="rgb(105,75,45)" stroke="#ffffff"/>
<text x="265.0" y="240.0" font-size="14" text-anchor="middle" font-family="Arial">96</text>
<rect x="296" y="204" width="62" height="62" fill="rgb(195,183,171)" stroke="#ffffff"/>
<text x="327.0" y="240.0" font-size="14" text-anchor="middle" font-family="Arial">38</text>
<rect x="358" y="204" width="62" height="62" fill="rgb(251,251,250)" stroke="#ffffff"/>
<text x="389.0" y="240.0" font-size="14" text-anchor="middle" font-family="Arial">2</text>
<rect x="420" y="204" width="62" height="62" fill="rgb(255,255,255)" stroke="#ffffff"/>
<text x="451.0" y="240.0" font-size="14" text-anchor="middle" font-family="Arial">0</text>
<rect x="110" y="266" width="62" height="62" fill="rgb(255,255,255)" stroke="#ffffff"/>
<text x="141.0" y="302.0" font-size="14" text-anchor="middle" font-family="Arial">0</text>
<rect x="172" y="266" width="62" height="62" fill="rgb(255,255,255)" stroke="#ffffff"/>
<text x="203.0" y="302.0" font-size="14" text-anchor="middle" font-family="Arial">0</text>
<rect x="234" y="266" width="62" height="62" fill="rgb(206,196,187)" stroke="#ffffff"/>
<text x="265.0" y="302.0" font-size="14" text-anchor="middle" font-family="Arial">31</text>
<rect x="296" y="266" width="62" height="62" fill="rgb(128,103,77)" stroke="#ffffff"/>
<text x="327.0" y="302.0" font-size="14" text-anchor="middle" font-family="Arial">81</text>
<rect x="358" y="266" width="62" height="62" fill="rgb(231,226,222)" stroke="#ffffff"/>
<text x="389.0" y="302.0" font-size="14" text-anchor="middle" font-family="Arial">15</text>
<rect x="420" y="266" width="62" height="62" fill="rgb(253,253,252)" stroke="#ffffff"/>
<text x="451.0" y="302.0" font-size="14" text-anchor="middle" font-family="Arial">1</text>
<rect x="110" y="328" width="62" height="62" fill="rgb(255,255,255)" stroke="#ffffff"/>
<text x="141.0" y="364.0" font-size="14" text-anchor="middle" font-family="Arial">0</text>
<rect x="172" y="328" width="62" height="62" fill="rgb(255,255,255)" stroke="#ffffff"/>
<text x="203.0" y="364.0" font-size="14" text-anchor="middle" font-family="Arial">0</text>
<rect x="234" y="328" width="62" height="62" fill="rgb(253,253,252)" stroke="#ffffff"/>
<text x="265.0" y="364.0" font-size="14" text-anchor="middle" font-family="Arial">1</text>
<rect x="296" y="328" width="62" height="62" fill="rgb(225,219,213)" stroke="#ffffff"/>
<text x="327.0" y="364.0" font-size="14" text-anchor="middle" font-family="Arial">19</text>
<rect x="358" y="328" width="62" height="62" fill="rgb(223,217,211)" stroke="#ffffff"/>
<text x="389.0" y="364.0" font-size="14" text-anchor="middle" font-family="Arial">20</text>
<rect x="420" y="328" width="62" height="62" fill="rgb(255,255,255)" stroke="#ffffff"/>
<text x="451.0" y="364.0" font-size="14" text-anchor="middle" font-family="Arial">0</text>
<rect x="110" y="390" width="62" height="62" fill="rgb(255,255,255)" stroke="#ffffff"/>
<text x="141.0" y="426.0" font-size="14" text-anchor="middle" font-family="Arial">0</text>
<rect x="172" y="390" width="62" height="62" fill="rgb(255,255,255)" stroke="#ffffff"/>
<text x="203.0" y="426.0" font-size="14" text-anchor="middle" font-family="Arial">0</text>
<rect x="234" y="390" width="62" height="62" fill="rgb(255,255,255)" stroke="#ffffff"/>
<text x="265.0" y="426.0" font-size="14" text-anchor="middle" font-family="Arial">0</text>
<rect x="296" y="390" width="62" height="62" fill="rgb(250,249,248)" stroke="#ffffff"/>
<text x="327.0" y="426.0" font-size="14" text-anchor="middle" font-family="Arial">3</text>
<rect x="358" y="390" width="62" height="62" fill="rgb(253,253,252)" stroke="#ffffff"/>
<text x="389.0" y="426.0" font-size="14" text-anchor="middle" font-family="Arial">1</text>
<rect x="420" y="390" width="62" height="62" fill="rgb(255,255,255)" stroke="#ffffff"/>
<text x="451.0" y="426.0" font-size="14" text-anchor="middle" font-family="Arial">0</text>
</svg>
